<svg id="Diamond_Icon" data-name="Diamond Icon" xmlns="http://www.w3.org/2000/svg" width="30.577" height="33.641" viewBox="0 0 30.577 33.641">
  <path id="Path_5003" data-name="Path 5003" d="M750.909,269.924h0a.456.456,0,0,0,.467-.467v-4.672c0-.133-.067-.2-.133-.334a.564.564,0,0,0-.4-.133.447.447,0,0,0-.4.467v4.672c0,.134.067.2.134.334A.509.509,0,0,0,750.909,269.924Z" transform="translate(-735.551 -264.317)" fill="#2b121d"/>
  <path id="Path_5004" data-name="Path 5004" d="M774.271,273.346a.51.51,0,0,0,.334-.133l3.137-3.471a.511.511,0,0,0,.134-.334c0-.133-.067-.2-.134-.334a.509.509,0,0,0-.333-.133h0a.347.347,0,0,0-.267.133L774,272.545a.511.511,0,0,0-.133.334c0,.133.067.2.133.334A.506.506,0,0,0,774.271,273.346Z" transform="translate(-748.834 -266.939)" fill="#2b121d"/>
  <path id="Path_5005" data-name="Path 5005" d="M746.567,295.6l-5.473-9.345a.4.4,0,0,0-.4-.2H721.937a.367.367,0,0,0-.334.2L716.13,295.6a.4.4,0,0,0,.067.534l14.751,14.017a.511.511,0,0,0,.334.133.432.432,0,0,0,.334-.133l14.751-14.017C746.634,296,746.7,295.728,746.567,295.6Zm-1.2-.267h-7.142l2.6-7.809Zm-.334.935L732.75,307.943l5.206-11.681Zm-8.076,0-5.54,12.415-5.54-12.482Zm-12.081,0,5.207,11.681-12.349-11.681Zm5.674-9.345-5.207,7.876-2.6-7.876Zm-4.539,8.41,5.406-8.076,5.407,8.076Zm14.151-8.41-2.67,7.876-5.273-7.876Zm-15.619,8.41H717.4l4.539-7.809Z" transform="translate(-716.057 -276.638)" fill="#2b121d"/>
  <path id="Path_5006" data-name="Path 5006" d="M723.195,273.146a.507.507,0,0,0,.333.134.346.346,0,0,0,.267-.134.509.509,0,0,0,.133-.333c0-.133-.067-.2-.133-.334l-3.07-3.4a.51.51,0,0,0-.334-.133h0a.456.456,0,0,0-.467.467.348.348,0,0,0,.133.267Z" transform="translate(-718.249 -266.939)" fill="#2b121d"/>
</svg>
